#!OML:ASF F:\VICON\USERDATA\INSTALL\rory3\rory3.ASF
:FULLY-SPECIFIED
:DEGREES
1833
root 4.87592 13.5058 -2.74815 208.604 128.907 182.709
lowerback 33.5158 -0.359115 -0.940731
upperback 10.1354 -0.0205914 1.44241
thorax -5.96485 0.183116 1.99257
lowerneck -18.3448 -1.6918 -10.8773
upperneck 24.8687 -0.0713175 4.41965
head 11.1247 -0.45418 3.45063
rclavicle -2.26615e-014 1.59028e-014
rhumerus -33.4141 33.212 -80.5009
rradius 105.705
rwrist 40.7974
rhand -56.5101 1.51576
rfingers 7.12502
rthumb -28.8236 -26.2782
lclavicle -2.26615e-014 1.59028e-014
lhumerus -27.0266 -17.468 87.7323
lradius 94.5485
lwrist -23.615
lhand -47.9487 37.9823
lfingers 7.12502
lthumb -20.6191 66.9072
rfemur -89.6015 -13.6619 23.1671
rtibia 90.7781
rfoot -22.5404 0.221454
rtoes -12.7008
lfemur -87.6565 13.0667 -26.3067
ltibia 88.9869
lfoot -23.9844 -2.94981
ltoes -15.5865
1834
root 4.92706 13.6089 -2.72798 208.685 128.998 182.905
lowerback 32.8379 -0.481201 -0.710925
upperback 10.4109 -0.113253 1.27734
thorax -6.02243 0.14874 1.86611
lowerneck -18.5149 -1.76896 -10.9431
upperneck 25.0136 -0.187534 4.60026
head 11.222 -0.493565 3.5174
rclavicle 2.50469e-014 1.78906e-015
rhumerus -32.9586 33.1091 -80.863
rradius 104.634
rwrist 40.6421
rhand -55.8964 1.19582
rfingers 7.12502
rthumb -28.2372 -26.6966
lclavicle 2.50469e-014 1.78906e-015
lhumerus -26.2179 -17.5969 87.7195
lradius 92.6639
lwrist -23.489
lhand -47.9331 39.619
lfingers 7.12502
lthumb -20.6041 68.5455
rfemur -88.654 -13.6484 22.7697
rtibia 89.9078
rfoot -22.4696 0.293866
rtoes -12.2809
lfemur -86.6365 12.9213 -26.3544
ltibia 88.0527
lfoot -23.9244 -2.66737
ltoes -16.0551
1835
root 4.98018 13.7112 -2.7062 208.575 129.132 182.89
lowerback 32.4225 -0.164939 -1.03322
upperback 10.3091 0.218161 1.82127
thorax -5.96526 0.289502 2.54351
lowerneck -18.4182 -2.00915 -11.3485
upperneck 24.949 -0.353354 4.41174
head 11.2015 -0.626598 3.48864
rclavicle -5.56597e-014 -2.98177e-015
rhumerus -32.4122 32.9983 -80.1102
rradius 103.583
rwrist 40.4072
rhand -55.0855 1.4417
rfingers 7.12502
rthumb -27.462 -26.5762
lclavicle -5.56597e-014 -2.98177e-015
lhumerus -25.2518 -17.6109 88.7033
lradius 90.5404
lwrist -23.5084
lhand -47.5627 38.8571
lfingers 7.12502
lthumb -20.2481 67.8217
rfemur -87.6742 -13.5323 22.4955
rtibia 89.0375
rfoot -22.4433 -0.00372996
rtoes -14.6897
lfemur -85.6197 12.8965 -26.2763
ltibia 87.1555
lfoot -23.8786 -2.41705
ltoes -16.3359
1836
root 5.03444 13.8175 -2.68336 208.474 129.327 183.035
lowerback 32.2125 -0.431969 -0.350388
upperback 10.1455 0.0187002 1.20688
thorax -6.05415 0.206294 1.5271
lowerneck -18.5026 -1.9256 -10.4664
upperneck 25.1535 -0.552497 4.59745
head 11.301 -0.615039 3.38691
rclavicle 7.95139e-016 2.78299e-015
rhumerus -32.0093 32.4739 -81.2764
rradius 102.319
rwrist 40.3832
rhand -54.2308 1.965
rfingers 7.12502
rthumb -26.6442 -26.18
lclavicle 7.95139e-016 2.78299e-015
lhumerus -24.833 -18.1422 87.948
lradius 89.054
lwrist -23.3076
lhand -47.242 37.0192
lfingers 7.12502
lthumb -19.94 66.0162
rfemur -86.5251 -13.4426 22.0699
rtibia 88.1562
rfoot -22.4802 -0.0279427
rtoes -15.5616
lfemur -84.4319 12.9126 -26.3492
ltibia 86.2414
lfoot -23.8847 -2.11786
ltoes -16.7583
1837
root 5.08891 13.9224 -2.66258 208.455 129.57 183.265
lowerback 31.9489 -0.511912 -0.750775
upperback 9.95098 -0.187669 1.49326
thorax -6.14533 0.0979341 2.15388
lowerneck -18.5332 -1.77366 -11.0442
upperneck 25.3906 -0.13525 4.53699
head 11.3658 -0.496461 3.5295
rclavicle -2.8625e-014 -3.45885e-014
rhumerus -31.3229 33.3633 -81.0694
rradius 101.029
rwrist 40.2422
rhand -53.3867 1.65868
rfingers 7.12502
rthumb -25.8361 -26.6065
lclavicle -2.8625e-014 -3.45885e-014
lhumerus -24.6873 -17.2999 88.4604
lradius 87.6157
lwrist -23.7367
lhand -46.8033 36.2806
lfingers 7.12502
lthumb -19.5181 65.3209
rfemur -85.4534 -13.3474 21.5376
rtibia 87.2858
rfoot -22.3911 0.224576
rtoes -16.2499
lfemur -83.2571 12.8954 -26.448
ltibia 85.3321
lfoot -23.8327 -1.93313
ltoes -16.855
1838
root 5.14473 14.0236 -2.64376 208.395 129.812 183.402
lowerback 31.4698 -0.621399 -0.643405
upperback 9.86686 -0.31061 1.44477
thorax -6.02038 0.0357211 2.07608
lowerneck -18.6549 -1.71446 -11.0817
upperneck 25.5385 -0.0335699 4.56761
head 11.4366 -0.454598 3.56746
rclavicle -6.40087e-014 1.94809e-014
rhumerus -30.6801 33.5932 -81.2949
rradius 99.7304
rwrist 40.0264
rhand -52.8496 1.46639
rfingers 7.12502
rthumb -25.3216 -26.8727
lclavicle -6.40087e-014 1.94809e-014
lhumerus -24.1045 -17.2749 88.4399
lradius 85.9779
lwrist -23.9176
lhand -46.4556 35.825
lfingers 7.12502
lthumb -19.1839 64.8989
rfemur -84.4678 -13.1931 21.0006
rtibia 86.4266
rfoot -22.3346 0.65105
rtoes -16.3733
lfemur -82.1291 12.8166 -26.4182
ltibia 84.4376
lfoot -23.7397 -1.83598
ltoes -16.5861
1839
root 5.20336 14.1263 -2.62167 208.271 130.082 183.588
lowerback 31.1006 -0.559123 -0.754195
upperback 9.75297 -0.268455 1.56454
thorax -5.98101 0.0489282 2.25633
lowerneck -18.7246 -1.74838 -11.1253
upperneck 25.7095 -0.00234204 4.3869
head 11.516 -0.471259 3.51719
rclavicle -9.22361e-014 1.49089e-014
rhumerus -30.1689 33.7866 -81.1997
rradius 98.4717
rwrist 39.7007
rhand -52.4189 1.4246
rfingers 7.12502
rthumb -24.909 -26.9723
lclavicle -9.22361e-014 1.49089e-014
lhumerus -23.6026 -17.5499 88.8819
lradius 84.2222
lwrist -23.3559
lhand -46.5419 34.8907
lfingers 7.12502
lthumb -19.2668 63.9563
rfemur -83.2906 -13.0064 20.4191
rtibia 85.5479
rfoot -22.1928 0.647578
rtoes -17.8542
lfemur -80.8914 12.7823 -26.4598
ltibia 83.5476
lfoot -23.6583 -1.64227
ltoes -16.7811
1840
root 5.26143 14.2245 -2.5991 208.037 130.341 183.752
lowerback 30.9032 -0.436671 -0.954743
upperback 9.57095 -0.168746 1.77521
thorax -6.09826 0.0896967 2.57317
lowerneck -18.7136 -1.74966 -11.1825
upperneck 25.9633 0.0922089 4.1425
head 11.607 -0.471152 3.45629
rclavicle -2.50469e-014 4.51241e-014
rhumerus -29.7338 33.8297 -81.0943
rradius 97.1664
rwrist 39.5718
rhand -51.7183 1.55855
rfingers 7.12502
rthumb -24.2375 -26.9296
lclavicle -2.50469e-014 4.51241e-014
lhumerus -23.2047 -17.808 89.5047
lradius 82.4014
lwrist -22.8405
lhand -46.4655 34.544
lfingers 7.12502
lthumb -19.1934 63.6169
rfemur -81.9824 -12.8073 19.9003
rtibia 84.6515
rfoot -22.1653 0.520763
rtoes -18.2581
lfemur -79.5708 12.8037 -26.5008
ltibia 82.6656
lfoot -23.524 -1.42226
ltoes -16.9303
1841
root 5.31914 14.32 -2.58013 207.901 130.588 183.953
lowerback 30.579 -0.447922 -0.975681
upperback 9.39158 -0.200134 1.81609
thorax -6.15022 0.0706278 2.63955
lowerneck -18.7356 -1.68067 -11.0818
upperneck 26.2674 0.217386 3.97648
head 11.719 -0.434278 3.40448
rclavicle 0 1.04958e-013
rhumerus -29.2379 33.8659 -81.2271
rradius 95.7376
rwrist 39.4274
rhand -51.0787 2.08577
rfingers 7.12502
rthumb -23.6241 -26.4829
lclavicle 0 1.04958e-013
lhumerus -22.686 -17.9939 89.7674
lradius 80.4679
lwrist -23.0273
lhand -46.1189 34.9199
lfingers 7.12502
lthumb -18.8601 64.0256
rfemur -80.8061 -12.6403 19.3813
rtibia 83.7563
rfoot -22.1729 0.391896
rtoes -18.4678
lfemur -78.3868 12.8172 -26.6228
ltibia 81.7875
lfoot -23.3853 -1.21646
ltoes -17.3105
1842
root 5.37918 14.4199 -2.56159 207.78 130.762 184.166
lowerback 30.3028 -0.622663 -0.818398
upperback 9.19476 -0.392493 1.76434
thorax -6.23755 -0.0223629 2.55487
lowerneck -19.0856 -1.61574 -11.0948
upperneck 26.7921 0.376166 3.95493
head 11.9799 -0.382709 3.44086
rclavicle -5.40694e-014 -4.53229e-014
rhumerus -28.691 34.2433 -81.4555
rradius 94.2608
rwrist 39.1037
rhand -50.7313 2.21496
rfingers 7.12502
rthumb -23.2908 -26.3963
lclavicle -5.40694e-014 -4.53229e-014
lhumerus -22.1036 -17.9631 89.8074
lradius 78.479
lwrist -23.6988
lhand -45.5979 35.3861
lfingers 7.12502
lthumb -18.3589 64.5397
rfemur -79.6471 -12.5533 18.9002
rtibia 82.8918
rfoot -22.2488 0.247312
rtoes -18.805
lfemur -77.2034 12.7864 -26.7386
ltibia 80.9091
lfoot -23.1648 -1.09033
ltoes -18.0939
1843
root 5.43707 14.5253 -2.54038 207.45 130.937 184.403
lowerback 30.1882 -0.781186 -1.12364
upperback 9.11315 -0.646488 2.14134
thorax -6.25163 -0.148285 3.23988
lowerneck -19.4992 -1.58961 -12.177
upperneck 27.1228 0.800511 4.06362
head 12.1611 -0.3019 3.74316
rclavicle 1.03368e-014 -5.1684e-015
rhumerus -27.8047 35.4442 -80.9085
rradius 92.7947
rwrist 38.5029
rhand -50.2691 2.131
rfingers 7.12502
rthumb -22.8474 -26.5357
lclavicle 1.03368e-014 -5.1684e-015
lhumerus -21.4909 -17.2234 90.4087
lradius 76.6686
lwrist -24.508
lhand -45.1181 37.0935
lfingers 7.12502
lthumb -17.8973 66.29
rfemur -78.2137 -12.4116 18.3179
rtibia 82.0444
rfoot -22.2972 0.0801225
rtoes -18.9587
lfemur -75.7243 12.7076 -26.7256
ltibia 80.0594
lfoot -22.8859 -1.00947
ltoes -18.4852
